<?xml version="1.0" encoding="iso-8859-1"?>
<!-- Uploaded to: SVG Repo, www.svgrepo.com, Generator: SVG Repo Mixer Tools -->
<svg fill="#000000" height="800px" width="800px" version="1.1" id="Layer_1" xmlns="http://www.w3.org/2000/svg" xmlns:xlink="http://www.w3.org/1999/xlink" 
	 viewBox="0 0 493.468 493.468" xml:space="preserve">
<g>
	<g>
		<path d="M246.73,0C110.682,0,0.01,110.688,0.01,246.736c0,136.044,110.672,246.732,246.72,246.732S493.458,382.78,493.458,246.736
			C493.458,110.688,382.778,0,246.73,0z M219.738,309.012c0,2.312-0.416,9.852-5.78,9.852c-2.008,0-4.42-0.952-6.988-2.756
			l-83.652-58.912c-3.964-2.792-6.148-6.388-6.144-10.12c0-3.728,2.18-7.312,6.132-10.092l83.668-58.912
			c2.564-1.808,4.98-2.764,6.984-2.764c5.364,0,5.78,7.54,5.78,9.852V309.012z M359.738,309.012c0,6.08-2.984,9.852-7.784,9.852
			c-2.432,0-5.076-0.952-7.64-2.756l-84.324-58.92c-4.108-2.892-6.472-6.748-6.472-10.572c0-3.576,2.064-7,5.804-9.632
			l84.972-58.896c2.588-1.824,5.228-2.776,7.66-2.776c4.804,0,7.784,3.772,7.784,9.852V309.012z"/>
	</g>
</g>
</svg>